<?xml version="1.0" encoding="utf-8"?>
<!-- Generator: Adobe Illustrator 27.5.0, SVG Export Plug-In . SVG Version: 6.00 Build 0)  -->
<svg version="1.1" id="katman_1" xmlns="http://www.w3.org/2000/svg" xmlns:xlink="http://www.w3.org/1999/xlink" x="0px" y="0px"
	 viewBox="0 0 1190.6 841.9" style="enable-background:new 0 0 1190.6 841.9;" xml:space="preserve">
<style type="text/css">
	.st0{fill:none;}
	.st1{fill:none;stroke:#949494;stroke-width:4;stroke-miterlimit:10;}
</style>
<line class="st0" x1="846.5" y1="452" x2="846.4" y2="451.5"/>
<polygon class="st1" points="661.1,565.5 650.7,591.1 647.7,598.7 627.9,647.6 608.2,696.5 601.8,712.1 596.5,725.4 584.8,696.5 
	565,647.6 552.9,617.5 545.3,598.7 531.6,564.9 525.5,549.8 505.8,500.9 504,496.5 486,452 480.2,437.5 474.4,452 455.1,499.6 
	454.6,500.9 434.8,549.8 303.9,549.8 308.4,538.8 323.7,500.9 343.5,452 357.3,417.8 363.2,403.1 383,354.1 402.7,305.2 
	406.2,296.8 414.7,275.6 422.5,256.3 442.3,207.4 455.1,175.6 462,158.5 479.4,115.6 496.7,158.5 504,176.6 516.4,207.4 
	536.2,256.3 544.8,277.6 552.9,297.7 556,305.2 575.7,354.1 595.5,403.1 596.3,405 601.8,418.8 615.3,452 635,500.9 650.7,539.8 
	654.8,549.8 "/>
<polygon class="st1" points="886.1,549.8 761.4,549.8 748.6,517.9 741.7,500.9 721.9,452 714.4,433.5 702.2,403.1 699.6,396.8 
	682.4,354.1 662.6,305.2 650.7,275.8 650.7,270.2 656.3,256.3 676.1,207.4 695.8,158.5 699.6,149.1 711.9,118.7 728,158.5 
	747.7,207.4 748.6,209.4 767.5,256.3 776.7,279.2 787.3,305.2 797.5,330.5 807,354.1 826.8,403.1 846.4,451.5 846.4,452 846.5,452 
	866.3,500.9 "/>
</svg>
