<svg width="24" height="24" viewBox="0 0 24 24" fill="none" xmlns="http://www.w3.org/2000/svg">
<g id="Bag - Outline">
<path id="Vector" d="M20.25 14.15V18.4C20.25 19.494 19.463 20.436 18.378 20.58C16.291 20.857 14.162 21 12 21C9.83801 21 7.70901 20.857 5.62201 20.58C4.53701 20.436 3.75001 19.494 3.75001 18.4V14.15M20.25 14.15C20.4875 13.9436 20.6774 13.6883 20.8069 13.4016C20.9364 13.1149 21.0022 12.8036 21 12.489V8.706C21 7.625 20.232 6.691 19.163 6.531C18.0303 6.36142 16.8919 6.23234 15.75 6.144M20.25 14.15C20.056 14.315 19.83 14.445 19.577 14.53C17.1332 15.3408 14.5748 15.7528 12 15.75C9.35201 15.75 6.80501 15.321 4.42301 14.53C4.17627 14.4479 3.94774 14.3189 3.75001 14.15M3.75001 14.15C3.51255 13.9436 3.32257 13.6883 3.19311 13.4016C3.06365 13.1149 2.99777 12.8036 3.00001 12.489V8.706C3.00001 7.625 3.76801 6.691 4.83701 6.531C5.96971 6.36142 7.1081 6.23233 8.25001 6.144M15.75 6.144V5.25C15.75 4.65326 15.513 4.08097 15.091 3.65901C14.669 3.23705 14.0967 3 13.5 3H10.5C9.90327 3 9.33098 3.23705 8.90902 3.65901C8.48706 4.08097 8.25001 4.65326 8.25001 5.25V6.144M15.75 6.144C13.2537 5.95108 10.7463 5.95108 8.25001 6.144M12 12.75H12.008V12.758H12V12.75Z" stroke="#C5C5C5" stroke-width="1.5" stroke-linecap="round" stroke-linejoin="round"/>
</g>
</svg>
