<svg width="25" height="24" viewBox="0 0 25 24" fill="none" xmlns="http://www.w3.org/2000/svg">
<g id="Message - Outline">
<path id="Vector" d="M22.35 6.75V17.25C22.35 17.8467 22.113 18.419 21.691 18.841C21.269 19.2629 20.6967 19.5 20.1 19.5H5.10001C4.50327 19.5 3.93097 19.2629 3.50902 18.841C3.08706 18.419 2.85001 17.8467 2.85001 17.25V6.75M22.35 6.75C22.35 6.15326 22.113 5.58097 21.691 5.15901C21.269 4.73705 20.6967 4.5 20.1 4.5H5.10001C4.50327 4.5 3.93097 4.73705 3.50902 5.15901C3.08706 5.58097 2.85001 6.15326 2.85001 6.75M22.35 6.75V6.993C22.35 7.37715 22.2517 7.75491 22.0644 8.0903C21.8771 8.42569 21.6071 8.70754 21.28 8.909L13.78 13.524C13.4252 13.7425 13.0167 13.8582 12.6 13.8582C12.1833 13.8582 11.7748 13.7425 11.42 13.524L3.92001 8.91C3.59293 8.70854 3.32288 8.42669 3.13558 8.0913C2.94827 7.75591 2.84996 7.37815 2.85001 6.994V6.75" stroke="#C5C5C5" stroke-width="1.5" stroke-linecap="round" stroke-linejoin="round"/>
</g>
</svg>
