<svg width="25" height="24" viewBox="0 0 25 24" fill="none" xmlns="http://www.w3.org/2000/svg">
<g id="User - Outline">
<path id="Vector" d="M15.95 6C15.95 6.99456 15.5549 7.94839 14.8517 8.65165C14.1484 9.35491 13.1946 9.75 12.2 9.75C11.2054 9.75 10.2516 9.35491 9.54835 8.65165C8.84509 7.94839 8.45 6.99456 8.45 6C8.45 5.00544 8.84509 4.05161 9.54835 3.34835C10.2516 2.64509 11.2054 2.25 12.2 2.25C13.1946 2.25 14.1484 2.64509 14.8517 3.34835C15.5549 4.05161 15.95 5.00544 15.95 6ZM4.701 20.118C4.73314 18.1504 5.53734 16.2742 6.94018 14.894C8.34302 13.5139 10.2321 12.7405 12.2 12.7405C14.1679 12.7405 16.057 13.5139 17.4598 14.894C18.8627 16.2742 19.6669 18.1504 19.699 20.118C17.3464 21.1968 14.7882 21.7535 12.2 21.75C9.524 21.75 6.984 21.166 4.701 20.118Z" stroke="#C5C5C5" stroke-width="1.5" stroke-linecap="round" stroke-linejoin="round"/>
</g>
</svg>
