<svg width="38" height="28" viewBox="0 0 38 28" fill="none" xmlns="http://www.w3.org/2000/svg">
<g id="&#229;&#155;&#190;&#229;&#177;&#130; 2">
<g id="Discord Logos">
<g id="Discord Logo - Large - White">
<path id="Vector" d="M26.1975 24.873C27.2684 24.4744 28.3028 23.9877 29.2898 23.4183L29.444 23.3293L29.2956 23.231C29.0346 23.0582 28.7759 22.865 28.5221 22.6625L28.469 22.6202L28.4074 22.6485C25.4665 24.0004 22.2566 24.7013 19.0066 24.7013C15.7566 24.7013 12.5466 24.0004 9.60579 22.6485L9.54617 22.6211L9.49368 22.6605C9.24106 22.85 8.98068 23.0444 8.71471 23.233L8.57453 23.3324L8.72335 23.4183C9.70833 23.9868 10.7408 24.4724 11.8097 24.8701C11.2558 25.9189 10.6172 26.923 9.89994 27.8727C6.55706 26.8738 3.41148 25.3287 0.596753 23.3028C-0.0497715 16.5725 1.26785 9.74696 6.10207 2.74413C8.518 1.66677 11.0656 0.897337 13.6821 0.454724C14.0291 1.06665 14.3441 1.6954 14.6258 2.33856L14.6596 2.4156L14.7428 2.40334C17.5664 1.98745 20.4379 1.98745 23.2616 2.40334L23.3448 2.4156L23.3785 2.33854C23.6601 1.69529 23.9751 1.06651 24.3223 0.454632C26.9372 0.893632 29.4831 1.66128 31.8967 2.73851C36.0894 8.741 38.1744 15.5046 37.4165 23.3057C34.6012 25.3335 31.4531 26.8779 28.1073 27.8728C27.3894 26.9245 26.7508 25.9213 26.1975 24.873ZM9.32918 15.5506C9.32918 17.6131 10.8922 19.3043 12.8027 19.3043C14.7507 19.3043 16.2402 17.6109 16.2733 15.5524C16.3065 13.4883 14.7542 11.7825 12.7968 11.7825C10.8376 11.7825 9.32918 13.49 9.32918 15.5506ZM21.7399 15.5506C21.7399 17.6129 23.2969 19.3043 25.2105 19.3043C27.1586 19.3043 28.645 17.6107 28.6781 15.5524C28.7113 13.4887 27.1711 11.7825 25.2105 11.7825C23.2484 11.7825 21.7399 13.4899 21.7399 15.5506Z" fill="#0D0D0D" stroke="#0D0D0D" stroke-width="0.220319"/>
</g>
</g>
</g>
</svg>
