<svg width="25" height="24" viewBox="0 0 25 24" fill="none" xmlns="http://www.w3.org/2000/svg">
<g id="Home - Fill">
<path id="Vector" d="M11.5167 3.48623L11.5164 3.48645L2.83023 12.1727C2.78335 12.2169 2.72117 12.2413 2.65665 12.2408C2.5911 12.2402 2.52839 12.214 2.48201 12.1677C2.43564 12.1213 2.40932 12.0586 2.40872 11.9931C2.40813 11.9286 2.43246 11.8665 2.47655 11.8196L11.1626 3.13356L10.809 2.78001L11.1626 3.13356C11.3251 2.97105 11.518 2.84215 11.7303 2.7542C11.9426 2.66625 12.1702 2.62099 12.4 2.62099C12.6298 2.62099 12.8574 2.66625 13.0697 2.7542C13.282 2.84214 13.4749 2.97104 13.6374 3.13354C13.6374 3.13355 13.6374 3.13355 13.6374 3.13356L22.3264 11.8235L22.3327 11.8298L22.3391 11.8358C22.3637 11.8587 22.3834 11.8863 22.3971 11.917C22.4107 11.9476 22.4181 11.9807 22.4187 12.0143C22.4193 12.0479 22.4131 12.0812 22.4005 12.1123C22.3879 12.1435 22.3692 12.1718 22.3455 12.1955C22.3217 12.2192 22.2935 12.2379 22.2623 12.2505C22.2312 12.2631 22.1979 12.2693 22.1643 12.2687C22.1307 12.2681 22.0976 12.2607 22.067 12.2471C22.0363 12.2334 22.0087 12.2137 21.9858 12.1891L21.9798 12.1827L21.9736 12.1765L13.2836 3.48645L13.2833 3.48623C13.049 3.25215 12.7312 3.12067 12.4 3.12067C12.0687 3.12067 11.751 3.25215 11.5167 3.48623Z" fill="white" stroke="white"/>
<path id="Vector_2" d="M12.4 5.43199L20.559 13.591C20.589 13.621 20.619 13.649 20.65 13.677V19.875C20.65 20.91 19.81 21.75 18.775 21.75H15.4C15.2011 21.75 15.0103 21.671 14.8697 21.5303C14.729 21.3897 14.65 21.1989 14.65 21V16.5C14.65 16.3011 14.571 16.1103 14.4303 15.9697C14.2897 15.829 14.0989 15.75 13.9 15.75H10.9C10.7011 15.75 10.5103 15.829 10.3697 15.9697C10.229 16.1103 10.15 16.3011 10.15 16.5V21C10.15 21.1989 10.071 21.3897 9.93032 21.5303C9.78967 21.671 9.59891 21.75 9.39999 21.75H6.02499C5.52771 21.75 5.0508 21.5524 4.69917 21.2008C4.34754 20.8492 4.14999 20.3723 4.14999 19.875V13.677C4.18111 13.6492 4.21145 13.6205 4.24099 13.591L12.4 5.42999V5.43199Z" fill="white"/>
</g>
</svg>
