<svg width="38" height="38" viewBox="0 0 38 38" fill="none" xmlns="http://www.w3.org/2000/svg">
<g id="Group">
<path id="Subtract" fill-rule="evenodd" clip-rule="evenodd" d="M33.26 37.3299H4.74651C2.49686 37.3299 0.673157 35.5062 0.673157 33.2565V4.74307C0.673157 2.49342 2.49686 0.669724 4.74651 0.669724H33.26C35.5096 0.669724 37.3333 2.49342 37.3333 4.74307V33.2565C37.3333 35.5062 35.5096 37.3299 33.26 37.3299ZM26.7995 32.2382H32.2396V21.0626C32.2396 16.3341 29.5592 14.0478 25.8152 14.0478C22.0695 14.0478 20.4931 16.9647 20.4931 16.9647V14.5871H15.2504V32.2382H20.4931V22.9725C20.4931 20.4897 21.636 19.0124 23.8234 19.0124C25.8342 19.0124 26.7995 20.432 26.7995 22.9725V32.2382ZM5.76286 9.01863C5.76286 10.8173 7.20994 12.2758 8.99575 12.2758C10.7815 12.2758 12.2278 10.8173 12.2278 9.01863C12.2278 7.21992 10.7815 5.76147 8.99575 5.76147C7.20994 5.76147 5.76286 7.21992 5.76286 9.01863ZM11.7555 32.2382H6.2886V14.5871H11.7555V32.2382Z" fill="#808080"/>
</g>
</svg>
